<mxfile host="app.diagrams.net" modified="2021-12-19T08:41:35.386Z" agent="5.0 (Windows NT 10.0; Win64; x64) AppleWebKit/537.36 (KHTML, like Gecko) Chrome/96.0.4664.110 Safari/537.36 Edg/96.0.1054.62" etag="ICrVZqHEeGTe8ZBCtpRL" version="16.0.0" type="github" pages="2">
  <diagram name="容器结构" id="9f46799a-70d6-7492-0946-bef42562c5a5">
    <mxGraphModel dx="1038" dy="547" grid="1" gridSize="10" guides="1" tooltips="1" connect="1" arrows="1" fold="1" page="1" pageScale="1" pageWidth="1100" pageHeight="850" background="none" math="0" shadow="0">
      <root>
        <mxCell id="0" />
        <mxCell id="1" parent="0" />
        <mxCell id="78961159f06e98e8-43" value="container 容器" style="swimlane;html=1;fontStyle=1;align=center;verticalAlign=top;childLayout=stackLayout;horizontal=1;startSize=26;horizontalStack=0;resizeParent=1;resizeLast=0;collapsible=1;marginBottom=0;swimlaneFillColor=#ffffff;rounded=0;shadow=0;comic=0;labelBackgroundColor=none;strokeWidth=1;fillColor=none;fontFamily=Verdana;fontSize=12;" parent="1" vertex="1">
          <mxGeometry x="430" y="20" width="160" height="210" as="geometry" />
        </mxCell>
        <mxCell id="78961159f06e98e8-44" value="+ type: int" style="text;html=1;strokeColor=none;fillColor=none;align=left;verticalAlign=top;spacingLeft=4;spacingRight=4;whiteSpace=wrap;overflow=hidden;rotatable=0;points=[[0,0.5],[1,0.5]];portConstraint=eastwest;" parent="78961159f06e98e8-43" vertex="1">
          <mxGeometry y="26" width="160" height="26" as="geometry" />
        </mxCell>
        <mxCell id="kNBcB6lUVSVT-Yaj8wNN-4" value="+ Len: int" style="text;html=1;strokeColor=none;fillColor=none;align=left;verticalAlign=top;spacingLeft=4;spacingRight=4;whiteSpace=wrap;overflow=hidden;rotatable=0;points=[[0,0.5],[1,0.5]];portConstraint=eastwest;" vertex="1" parent="78961159f06e98e8-43">
          <mxGeometry y="52" width="160" height="26" as="geometry" />
        </mxCell>
        <mxCell id="78961159f06e98e8-51" value="" style="line;html=1;strokeWidth=1;fillColor=none;align=left;verticalAlign=middle;spacingTop=-1;spacingLeft=3;spacingRight=3;rotatable=0;labelPosition=right;points=[];portConstraint=eastwest;" parent="78961159f06e98e8-43" vertex="1">
          <mxGeometry y="78" width="160" height="8" as="geometry" />
        </mxCell>
        <mxCell id="78961159f06e98e8-52" value="+ set(): int" style="text;html=1;strokeColor=none;fillColor=none;align=left;verticalAlign=top;spacingLeft=4;spacingRight=4;whiteSpace=wrap;overflow=hidden;rotatable=0;points=[[0,0.5],[1,0.5]];portConstraint=eastwest;" parent="78961159f06e98e8-43" vertex="1">
          <mxGeometry y="86" width="160" height="26" as="geometry" />
        </mxCell>
        <mxCell id="78961159f06e98e8-53" value="+ get(): string" style="text;html=1;strokeColor=none;fillColor=none;align=left;verticalAlign=top;spacingLeft=4;spacingRight=4;whiteSpace=wrap;overflow=hidden;rotatable=0;points=[[0,0.5],[1,0.5]];portConstraint=eastwest;" parent="78961159f06e98e8-43" vertex="1">
          <mxGeometry y="112" width="160" height="26" as="geometry" />
        </mxCell>
        <mxCell id="kNBcB6lUVSVT-Yaj8wNN-3" value="+ del(): int" style="text;html=1;strokeColor=none;fillColor=none;align=left;verticalAlign=top;spacingLeft=4;spacingRight=4;whiteSpace=wrap;overflow=hidden;rotatable=0;points=[[0,0.5],[1,0.5]];portConstraint=eastwest;" vertex="1" parent="78961159f06e98e8-43">
          <mxGeometry y="138" width="160" height="28" as="geometry" />
        </mxCell>
        <mxCell id="kNBcB6lUVSVT-Yaj8wNN-58" value="+ getSize(): int" style="text;html=1;strokeColor=none;fillColor=none;align=left;verticalAlign=top;spacingLeft=4;spacingRight=4;whiteSpace=wrap;overflow=hidden;rotatable=0;points=[[0,0.5],[1,0.5]];portConstraint=eastwest;" vertex="1" parent="78961159f06e98e8-43">
          <mxGeometry y="166" width="160" height="28" as="geometry" />
        </mxCell>
        <mxCell id="kNBcB6lUVSVT-Yaj8wNN-29" value="" style="rounded=1;orthogonalLoop=1;jettySize=auto;html=1;endArrow=block;endFill=0;labelBackgroundColor=none;fontSize=12;fontFamily=Verdana;startFill=0;startSize=8;endSize=16;exitX=0.5;exitY=0;exitDx=0;exitDy=0;edgeStyle=orthogonalEdgeStyle;curved=1;" edge="1" parent="1" source="kNBcB6lUVSVT-Yaj8wNN-20">
          <mxGeometry relative="1" as="geometry">
            <mxPoint x="460" y="230" as="targetPoint" />
          </mxGeometry>
        </mxCell>
        <mxCell id="kNBcB6lUVSVT-Yaj8wNN-20" value="string" style="swimlane;html=1;fontStyle=1;align=center;verticalAlign=top;childLayout=stackLayout;horizontal=1;startSize=26;horizontalStack=0;resizeParent=1;resizeLast=0;collapsible=1;marginBottom=0;swimlaneFillColor=#ffffff;rounded=0;shadow=0;comic=0;labelBackgroundColor=none;strokeWidth=1;fillColor=none;fontFamily=Verdana;fontSize=12;" vertex="1" parent="1">
          <mxGeometry x="200" y="340" width="160" height="220" as="geometry" />
        </mxCell>
        <mxCell id="kNBcB6lUVSVT-Yaj8wNN-21" value="+ type: int" style="text;html=1;strokeColor=none;fillColor=none;align=left;verticalAlign=top;spacingLeft=4;spacingRight=4;whiteSpace=wrap;overflow=hidden;rotatable=0;points=[[0,0.5],[1,0.5]];portConstraint=eastwest;" vertex="1" parent="kNBcB6lUVSVT-Yaj8wNN-20">
          <mxGeometry y="26" width="160" height="26" as="geometry" />
        </mxCell>
        <mxCell id="kNBcB6lUVSVT-Yaj8wNN-22" value="+ Len: int" style="text;html=1;strokeColor=none;fillColor=none;align=left;verticalAlign=top;spacingLeft=4;spacingRight=4;whiteSpace=wrap;overflow=hidden;rotatable=0;points=[[0,0.5],[1,0.5]];portConstraint=eastwest;" vertex="1" parent="kNBcB6lUVSVT-Yaj8wNN-20">
          <mxGeometry y="52" width="160" height="26" as="geometry" />
        </mxCell>
        <mxCell id="kNBcB6lUVSVT-Yaj8wNN-27" value="+ data: string" style="text;html=1;strokeColor=none;fillColor=none;align=left;verticalAlign=top;spacingLeft=4;spacingRight=4;whiteSpace=wrap;overflow=hidden;rotatable=0;points=[[0,0.5],[1,0.5]];portConstraint=eastwest;" vertex="1" parent="kNBcB6lUVSVT-Yaj8wNN-20">
          <mxGeometry y="78" width="160" height="26" as="geometry" />
        </mxCell>
        <mxCell id="kNBcB6lUVSVT-Yaj8wNN-23" value="" style="line;html=1;strokeWidth=1;fillColor=none;align=left;verticalAlign=middle;spacingTop=-1;spacingLeft=3;spacingRight=3;rotatable=0;labelPosition=right;points=[];portConstraint=eastwest;" vertex="1" parent="kNBcB6lUVSVT-Yaj8wNN-20">
          <mxGeometry y="104" width="160" height="8" as="geometry" />
        </mxCell>
        <mxCell id="kNBcB6lUVSVT-Yaj8wNN-24" value="+ set(string): int" style="text;html=1;strokeColor=none;fillColor=none;align=left;verticalAlign=top;spacingLeft=4;spacingRight=4;whiteSpace=wrap;overflow=hidden;rotatable=0;points=[[0,0.5],[1,0.5]];portConstraint=eastwest;" vertex="1" parent="kNBcB6lUVSVT-Yaj8wNN-20">
          <mxGeometry y="112" width="160" height="26" as="geometry" />
        </mxCell>
        <mxCell id="kNBcB6lUVSVT-Yaj8wNN-25" value="+ get(): string" style="text;html=1;strokeColor=none;fillColor=none;align=left;verticalAlign=top;spacingLeft=4;spacingRight=4;whiteSpace=wrap;overflow=hidden;rotatable=0;points=[[0,0.5],[1,0.5]];portConstraint=eastwest;" vertex="1" parent="kNBcB6lUVSVT-Yaj8wNN-20">
          <mxGeometry y="138" width="160" height="26" as="geometry" />
        </mxCell>
        <mxCell id="kNBcB6lUVSVT-Yaj8wNN-26" value="+ del(): int" style="text;html=1;strokeColor=none;fillColor=none;align=left;verticalAlign=top;spacingLeft=4;spacingRight=4;whiteSpace=wrap;overflow=hidden;rotatable=0;points=[[0,0.5],[1,0.5]];portConstraint=eastwest;" vertex="1" parent="kNBcB6lUVSVT-Yaj8wNN-20">
          <mxGeometry y="164" width="160" height="28" as="geometry" />
        </mxCell>
        <mxCell id="kNBcB6lUVSVT-Yaj8wNN-59" value="+ getSize(): int" style="text;html=1;strokeColor=none;fillColor=none;align=left;verticalAlign=top;spacingLeft=4;spacingRight=4;whiteSpace=wrap;overflow=hidden;rotatable=0;points=[[0,0.5],[1,0.5]];portConstraint=eastwest;" vertex="1" parent="kNBcB6lUVSVT-Yaj8wNN-20">
          <mxGeometry y="192" width="160" height="28" as="geometry" />
        </mxCell>
        <mxCell id="kNBcB6lUVSVT-Yaj8wNN-63" style="rounded=1;orthogonalLoop=1;jettySize=auto;html=1;exitX=0.5;exitY=0;exitDx=0;exitDy=0;entryX=0.25;entryY=1;entryDx=0;entryDy=0;endArrow=block;endFill=0;labelBackgroundColor=none;fontSize=12;fontFamily=Verdana;startFill=0;startSize=8;endSize=16;edgeStyle=orthogonalEdgeStyle;elbow=vertical;curved=1;" edge="1" parent="1">
          <mxGeometry relative="1" as="geometry">
            <mxPoint x="496" y="340" as="sourcePoint" />
            <mxPoint x="506" y="230" as="targetPoint" />
            <Array as="points">
              <mxPoint x="506" y="340" />
            </Array>
          </mxGeometry>
        </mxCell>
        <mxCell id="kNBcB6lUVSVT-Yaj8wNN-30" value="set" style="swimlane;html=1;fontStyle=1;align=center;verticalAlign=top;childLayout=stackLayout;horizontal=1;startSize=26;horizontalStack=0;resizeParent=1;resizeLast=0;collapsible=1;marginBottom=0;swimlaneFillColor=#ffffff;rounded=0;shadow=0;comic=0;labelBackgroundColor=none;strokeWidth=1;fillColor=none;fontFamily=Verdana;fontSize=12;" vertex="1" parent="1">
          <mxGeometry x="380" y="340" width="160" height="220" as="geometry" />
        </mxCell>
        <mxCell id="kNBcB6lUVSVT-Yaj8wNN-31" value="+ type: int" style="text;html=1;strokeColor=none;fillColor=none;align=left;verticalAlign=top;spacingLeft=4;spacingRight=4;whiteSpace=wrap;overflow=hidden;rotatable=0;points=[[0,0.5],[1,0.5]];portConstraint=eastwest;" vertex="1" parent="kNBcB6lUVSVT-Yaj8wNN-30">
          <mxGeometry y="26" width="160" height="26" as="geometry" />
        </mxCell>
        <mxCell id="kNBcB6lUVSVT-Yaj8wNN-32" value="+ Len: int" style="text;html=1;strokeColor=none;fillColor=none;align=left;verticalAlign=top;spacingLeft=4;spacingRight=4;whiteSpace=wrap;overflow=hidden;rotatable=0;points=[[0,0.5],[1,0.5]];portConstraint=eastwest;" vertex="1" parent="kNBcB6lUVSVT-Yaj8wNN-30">
          <mxGeometry y="52" width="160" height="26" as="geometry" />
        </mxCell>
        <mxCell id="kNBcB6lUVSVT-Yaj8wNN-33" value="+ data: set&amp;lt;T&amp;gt;" style="text;html=1;strokeColor=none;fillColor=none;align=left;verticalAlign=top;spacingLeft=4;spacingRight=4;whiteSpace=wrap;overflow=hidden;rotatable=0;points=[[0,0.5],[1,0.5]];portConstraint=eastwest;" vertex="1" parent="kNBcB6lUVSVT-Yaj8wNN-30">
          <mxGeometry y="78" width="160" height="26" as="geometry" />
        </mxCell>
        <mxCell id="kNBcB6lUVSVT-Yaj8wNN-34" value="" style="line;html=1;strokeWidth=1;fillColor=none;align=left;verticalAlign=middle;spacingTop=-1;spacingLeft=3;spacingRight=3;rotatable=0;labelPosition=right;points=[];portConstraint=eastwest;" vertex="1" parent="kNBcB6lUVSVT-Yaj8wNN-30">
          <mxGeometry y="104" width="160" height="8" as="geometry" />
        </mxCell>
        <mxCell id="kNBcB6lUVSVT-Yaj8wNN-35" value="+ set(): int" style="text;html=1;strokeColor=none;fillColor=none;align=left;verticalAlign=top;spacingLeft=4;spacingRight=4;whiteSpace=wrap;overflow=hidden;rotatable=0;points=[[0,0.5],[1,0.5]];portConstraint=eastwest;" vertex="1" parent="kNBcB6lUVSVT-Yaj8wNN-30">
          <mxGeometry y="112" width="160" height="26" as="geometry" />
        </mxCell>
        <mxCell id="kNBcB6lUVSVT-Yaj8wNN-36" value="+ get(): string" style="text;html=1;strokeColor=none;fillColor=none;align=left;verticalAlign=top;spacingLeft=4;spacingRight=4;whiteSpace=wrap;overflow=hidden;rotatable=0;points=[[0,0.5],[1,0.5]];portConstraint=eastwest;" vertex="1" parent="kNBcB6lUVSVT-Yaj8wNN-30">
          <mxGeometry y="138" width="160" height="26" as="geometry" />
        </mxCell>
        <mxCell id="kNBcB6lUVSVT-Yaj8wNN-37" value="+ del(): int" style="text;html=1;strokeColor=none;fillColor=none;align=left;verticalAlign=top;spacingLeft=4;spacingRight=4;whiteSpace=wrap;overflow=hidden;rotatable=0;points=[[0,0.5],[1,0.5]];portConstraint=eastwest;" vertex="1" parent="kNBcB6lUVSVT-Yaj8wNN-30">
          <mxGeometry y="164" width="160" height="28" as="geometry" />
        </mxCell>
        <mxCell id="kNBcB6lUVSVT-Yaj8wNN-60" value="+ getSize(): int" style="text;html=1;strokeColor=none;fillColor=none;align=left;verticalAlign=top;spacingLeft=4;spacingRight=4;whiteSpace=wrap;overflow=hidden;rotatable=0;points=[[0,0.5],[1,0.5]];portConstraint=eastwest;" vertex="1" parent="kNBcB6lUVSVT-Yaj8wNN-30">
          <mxGeometry y="192" width="160" height="28" as="geometry" />
        </mxCell>
        <mxCell id="kNBcB6lUVSVT-Yaj8wNN-55" style="edgeStyle=orthogonalEdgeStyle;rounded=1;orthogonalLoop=1;jettySize=auto;html=1;exitX=0.5;exitY=0;exitDx=0;exitDy=0;endArrow=block;endFill=0;labelBackgroundColor=none;fontSize=12;fontFamily=Verdana;startFill=0;startSize=8;endSize=16;entryX=0.75;entryY=1;entryDx=0;entryDy=0;curved=1;" edge="1" parent="1" source="kNBcB6lUVSVT-Yaj8wNN-38" target="78961159f06e98e8-43">
          <mxGeometry relative="1" as="geometry">
            <mxPoint x="520" y="230" as="targetPoint" />
          </mxGeometry>
        </mxCell>
        <mxCell id="kNBcB6lUVSVT-Yaj8wNN-38" value="map" style="swimlane;html=1;fontStyle=1;align=center;verticalAlign=top;childLayout=stackLayout;horizontal=1;startSize=26;horizontalStack=0;resizeParent=1;resizeLast=0;collapsible=1;marginBottom=0;swimlaneFillColor=#ffffff;rounded=0;shadow=0;comic=0;labelBackgroundColor=none;strokeWidth=1;fillColor=none;fontFamily=Verdana;fontSize=12;" vertex="1" parent="1">
          <mxGeometry x="550" y="340" width="160" height="220" as="geometry" />
        </mxCell>
        <mxCell id="kNBcB6lUVSVT-Yaj8wNN-39" value="+ type: int" style="text;html=1;strokeColor=none;fillColor=none;align=left;verticalAlign=top;spacingLeft=4;spacingRight=4;whiteSpace=wrap;overflow=hidden;rotatable=0;points=[[0,0.5],[1,0.5]];portConstraint=eastwest;" vertex="1" parent="kNBcB6lUVSVT-Yaj8wNN-38">
          <mxGeometry y="26" width="160" height="26" as="geometry" />
        </mxCell>
        <mxCell id="kNBcB6lUVSVT-Yaj8wNN-40" value="+ Len: int" style="text;html=1;strokeColor=none;fillColor=none;align=left;verticalAlign=top;spacingLeft=4;spacingRight=4;whiteSpace=wrap;overflow=hidden;rotatable=0;points=[[0,0.5],[1,0.5]];portConstraint=eastwest;" vertex="1" parent="kNBcB6lUVSVT-Yaj8wNN-38">
          <mxGeometry y="52" width="160" height="26" as="geometry" />
        </mxCell>
        <mxCell id="kNBcB6lUVSVT-Yaj8wNN-41" value="+ data: &amp;lt;string,T&amp;gt;" style="text;html=1;strokeColor=none;fillColor=none;align=left;verticalAlign=top;spacingLeft=4;spacingRight=4;whiteSpace=wrap;overflow=hidden;rotatable=0;points=[[0,0.5],[1,0.5]];portConstraint=eastwest;" vertex="1" parent="kNBcB6lUVSVT-Yaj8wNN-38">
          <mxGeometry y="78" width="160" height="26" as="geometry" />
        </mxCell>
        <mxCell id="kNBcB6lUVSVT-Yaj8wNN-42" value="" style="line;html=1;strokeWidth=1;fillColor=none;align=left;verticalAlign=middle;spacingTop=-1;spacingLeft=3;spacingRight=3;rotatable=0;labelPosition=right;points=[];portConstraint=eastwest;" vertex="1" parent="kNBcB6lUVSVT-Yaj8wNN-38">
          <mxGeometry y="104" width="160" height="8" as="geometry" />
        </mxCell>
        <mxCell id="kNBcB6lUVSVT-Yaj8wNN-43" value="+ set(): int" style="text;html=1;strokeColor=none;fillColor=none;align=left;verticalAlign=top;spacingLeft=4;spacingRight=4;whiteSpace=wrap;overflow=hidden;rotatable=0;points=[[0,0.5],[1,0.5]];portConstraint=eastwest;" vertex="1" parent="kNBcB6lUVSVT-Yaj8wNN-38">
          <mxGeometry y="112" width="160" height="26" as="geometry" />
        </mxCell>
        <mxCell id="kNBcB6lUVSVT-Yaj8wNN-44" value="+ get(): string" style="text;html=1;strokeColor=none;fillColor=none;align=left;verticalAlign=top;spacingLeft=4;spacingRight=4;whiteSpace=wrap;overflow=hidden;rotatable=0;points=[[0,0.5],[1,0.5]];portConstraint=eastwest;" vertex="1" parent="kNBcB6lUVSVT-Yaj8wNN-38">
          <mxGeometry y="138" width="160" height="26" as="geometry" />
        </mxCell>
        <mxCell id="kNBcB6lUVSVT-Yaj8wNN-45" value="+ del(): int" style="text;html=1;strokeColor=none;fillColor=none;align=left;verticalAlign=top;spacingLeft=4;spacingRight=4;whiteSpace=wrap;overflow=hidden;rotatable=0;points=[[0,0.5],[1,0.5]];portConstraint=eastwest;" vertex="1" parent="kNBcB6lUVSVT-Yaj8wNN-38">
          <mxGeometry y="164" width="160" height="28" as="geometry" />
        </mxCell>
        <mxCell id="kNBcB6lUVSVT-Yaj8wNN-61" value="+ getSize(): int" style="text;html=1;strokeColor=none;fillColor=none;align=left;verticalAlign=top;spacingLeft=4;spacingRight=4;whiteSpace=wrap;overflow=hidden;rotatable=0;points=[[0,0.5],[1,0.5]];portConstraint=eastwest;" vertex="1" parent="kNBcB6lUVSVT-Yaj8wNN-38">
          <mxGeometry y="192" width="160" height="28" as="geometry" />
        </mxCell>
        <mxCell id="kNBcB6lUVSVT-Yaj8wNN-56" style="edgeStyle=orthogonalEdgeStyle;rounded=1;orthogonalLoop=1;jettySize=auto;html=1;exitX=0.5;exitY=0;exitDx=0;exitDy=0;endArrow=block;endFill=0;labelBackgroundColor=none;fontSize=12;fontFamily=Verdana;startFill=0;startSize=8;endSize=16;curved=1;" edge="1" parent="1" source="kNBcB6lUVSVT-Yaj8wNN-46">
          <mxGeometry relative="1" as="geometry">
            <mxPoint x="580" y="230" as="targetPoint" />
          </mxGeometry>
        </mxCell>
        <mxCell id="kNBcB6lUVSVT-Yaj8wNN-46" value="skipList" style="swimlane;html=1;fontStyle=1;align=center;verticalAlign=top;childLayout=stackLayout;horizontal=1;startSize=26;horizontalStack=0;resizeParent=1;resizeLast=0;collapsible=1;marginBottom=0;swimlaneFillColor=#ffffff;rounded=0;shadow=0;comic=0;labelBackgroundColor=none;strokeWidth=1;fillColor=none;fontFamily=Verdana;fontSize=12;" vertex="1" parent="1">
          <mxGeometry x="720" y="340" width="160" height="220" as="geometry" />
        </mxCell>
        <mxCell id="kNBcB6lUVSVT-Yaj8wNN-47" value="+ type: int" style="text;html=1;strokeColor=none;fillColor=none;align=left;verticalAlign=top;spacingLeft=4;spacingRight=4;whiteSpace=wrap;overflow=hidden;rotatable=0;points=[[0,0.5],[1,0.5]];portConstraint=eastwest;" vertex="1" parent="kNBcB6lUVSVT-Yaj8wNN-46">
          <mxGeometry y="26" width="160" height="26" as="geometry" />
        </mxCell>
        <mxCell id="kNBcB6lUVSVT-Yaj8wNN-48" value="+ Len: int" style="text;html=1;strokeColor=none;fillColor=none;align=left;verticalAlign=top;spacingLeft=4;spacingRight=4;whiteSpace=wrap;overflow=hidden;rotatable=0;points=[[0,0.5],[1,0.5]];portConstraint=eastwest;" vertex="1" parent="kNBcB6lUVSVT-Yaj8wNN-46">
          <mxGeometry y="52" width="160" height="26" as="geometry" />
        </mxCell>
        <mxCell id="kNBcB6lUVSVT-Yaj8wNN-49" value="+ data: &amp;lt;string,T&amp;gt;" style="text;html=1;strokeColor=none;fillColor=none;align=left;verticalAlign=top;spacingLeft=4;spacingRight=4;whiteSpace=wrap;overflow=hidden;rotatable=0;points=[[0,0.5],[1,0.5]];portConstraint=eastwest;" vertex="1" parent="kNBcB6lUVSVT-Yaj8wNN-46">
          <mxGeometry y="78" width="160" height="26" as="geometry" />
        </mxCell>
        <mxCell id="kNBcB6lUVSVT-Yaj8wNN-50" value="" style="line;html=1;strokeWidth=1;fillColor=none;align=left;verticalAlign=middle;spacingTop=-1;spacingLeft=3;spacingRight=3;rotatable=0;labelPosition=right;points=[];portConstraint=eastwest;" vertex="1" parent="kNBcB6lUVSVT-Yaj8wNN-46">
          <mxGeometry y="104" width="160" height="8" as="geometry" />
        </mxCell>
        <mxCell id="kNBcB6lUVSVT-Yaj8wNN-51" value="+ set(): int" style="text;html=1;strokeColor=none;fillColor=none;align=left;verticalAlign=top;spacingLeft=4;spacingRight=4;whiteSpace=wrap;overflow=hidden;rotatable=0;points=[[0,0.5],[1,0.5]];portConstraint=eastwest;" vertex="1" parent="kNBcB6lUVSVT-Yaj8wNN-46">
          <mxGeometry y="112" width="160" height="26" as="geometry" />
        </mxCell>
        <mxCell id="kNBcB6lUVSVT-Yaj8wNN-52" value="+ get(): string" style="text;html=1;strokeColor=none;fillColor=none;align=left;verticalAlign=top;spacingLeft=4;spacingRight=4;whiteSpace=wrap;overflow=hidden;rotatable=0;points=[[0,0.5],[1,0.5]];portConstraint=eastwest;" vertex="1" parent="kNBcB6lUVSVT-Yaj8wNN-46">
          <mxGeometry y="138" width="160" height="26" as="geometry" />
        </mxCell>
        <mxCell id="kNBcB6lUVSVT-Yaj8wNN-53" value="+ del(): int" style="text;html=1;strokeColor=none;fillColor=none;align=left;verticalAlign=top;spacingLeft=4;spacingRight=4;whiteSpace=wrap;overflow=hidden;rotatable=0;points=[[0,0.5],[1,0.5]];portConstraint=eastwest;" vertex="1" parent="kNBcB6lUVSVT-Yaj8wNN-46">
          <mxGeometry y="164" width="160" height="28" as="geometry" />
        </mxCell>
        <mxCell id="kNBcB6lUVSVT-Yaj8wNN-62" value="+ getSize(): int" style="text;html=1;strokeColor=none;fillColor=none;align=left;verticalAlign=top;spacingLeft=4;spacingRight=4;whiteSpace=wrap;overflow=hidden;rotatable=0;points=[[0,0.5],[1,0.5]];portConstraint=eastwest;" vertex="1" parent="kNBcB6lUVSVT-Yaj8wNN-46">
          <mxGeometry y="192" width="160" height="28" as="geometry" />
        </mxCell>
      </root>
    </mxGraphModel>
  </diagram>
  <diagram id="h1EWmdk5IkLwvOBa8FRu" name="系统架构">
    <mxGraphModel dx="1038" dy="547" grid="1" gridSize="10" guides="1" tooltips="1" connect="1" arrows="1" fold="1" page="1" pageScale="1" pageWidth="827" pageHeight="1169" math="0" shadow="0">
      <root>
        <mxCell id="wTieb54Fitw56I6BpWQb-0" />
        <mxCell id="wTieb54Fitw56I6BpWQb-1" parent="wTieb54Fitw56I6BpWQb-0" />
        <mxCell id="wTieb54Fitw56I6BpWQb-2" value="client" style="rounded=1;whiteSpace=wrap;html=1;sketch=1;fillColor=#21C0A5;strokeColor=#006658;fontColor=#5C5C5C;" vertex="1" parent="wTieb54Fitw56I6BpWQb-1">
          <mxGeometry x="60" y="70" width="120" height="60" as="geometry" />
        </mxCell>
        <mxCell id="wTieb54Fitw56I6BpWQb-3" value="client" style="rounded=1;whiteSpace=wrap;html=1;sketch=1;fillColor=#21C0A5;strokeColor=#006658;fontColor=#5C5C5C;" vertex="1" parent="wTieb54Fitw56I6BpWQb-1">
          <mxGeometry x="60" y="240" width="120" height="60" as="geometry" />
        </mxCell>
        <mxCell id="wTieb54Fitw56I6BpWQb-12" style="rounded=1;sketch=1;orthogonalLoop=1;jettySize=auto;html=1;fontColor=#5C5C5C;strokeColor=#006658;fillColor=#21C0A5;" edge="1" parent="wTieb54Fitw56I6BpWQb-1" source="wTieb54Fitw56I6BpWQb-4" target="wTieb54Fitw56I6BpWQb-11">
          <mxGeometry relative="1" as="geometry" />
        </mxCell>
        <mxCell id="wTieb54Fitw56I6BpWQb-4" value="Server" style="rounded=0;whiteSpace=wrap;html=1;sketch=1;strokeColor=#d79b00;fillColor=#ffe6cc;" vertex="1" parent="wTieb54Fitw56I6BpWQb-1">
          <mxGeometry x="240" y="160" width="120" height="60" as="geometry" />
        </mxCell>
        <mxCell id="wTieb54Fitw56I6BpWQb-8" value="" style="endArrow=classic;startArrow=classic;html=1;rounded=1;sketch=1;fontColor=#5C5C5C;strokeColor=#006658;fillColor=#21C0A5;exitX=1;exitY=0.5;exitDx=0;exitDy=0;entryX=0;entryY=0;entryDx=0;entryDy=0;edgeStyle=entityRelationEdgeStyle;" edge="1" parent="wTieb54Fitw56I6BpWQb-1" source="wTieb54Fitw56I6BpWQb-2" target="wTieb54Fitw56I6BpWQb-4">
          <mxGeometry width="50" height="50" relative="1" as="geometry">
            <mxPoint x="220" y="125" as="sourcePoint" />
            <mxPoint x="270" y="75" as="targetPoint" />
          </mxGeometry>
        </mxCell>
        <mxCell id="wTieb54Fitw56I6BpWQb-9" value="" style="endArrow=classic;startArrow=classic;html=1;rounded=1;sketch=1;fontColor=#5C5C5C;strokeColor=#006658;fillColor=#21C0A5;exitX=1;exitY=0.5;exitDx=0;exitDy=0;entryX=0;entryY=1;entryDx=0;entryDy=0;edgeStyle=entityRelationEdgeStyle;" edge="1" parent="wTieb54Fitw56I6BpWQb-1" source="wTieb54Fitw56I6BpWQb-3" target="wTieb54Fitw56I6BpWQb-4">
          <mxGeometry width="50" height="50" relative="1" as="geometry">
            <mxPoint x="190" y="270" as="sourcePoint" />
            <mxPoint x="280" y="320" as="targetPoint" />
          </mxGeometry>
        </mxCell>
        <mxCell id="wTieb54Fitw56I6BpWQb-11" value="memdb" style="shape=cylinder3;whiteSpace=wrap;html=1;boundedLbl=1;backgroundOutline=1;size=15;rounded=0;sketch=1;strokeColor=#9673a6;fillColor=#e1d5e7;" vertex="1" parent="wTieb54Fitw56I6BpWQb-1">
          <mxGeometry x="440" y="140" width="86" height="100" as="geometry" />
        </mxCell>
      </root>
    </mxGraphModel>
  </diagram>
</mxfile>
